solid SimulationAssm - AbsorbingGel - 1-1
   facet normal -1.000000e+00 0.000000e+00 0.000000e+00
      outer loop
         vertex -4.202127e-07 2.440000e+01 1.020000e+01
         vertex -4.202127e-07 2.440000e+01 -1.840293e-07
         vertex -4.202127e-07 2.354383e-07 1.020000e+01
      endloop
   endfacet
   facet normal -1.000000e+00 0.000000e+00 -0.000000e+00
      outer loop
         vertex -4.202127e-07 2.440000e+01 -1.840293e-07
         vertex -4.202127e-07 2.354383e-07 -1.840293e-07
         vertex -4.202127e-07 2.354383e-07 1.020000e+01
      endloop
   endfacet
   facet normal 0.000000e+00 0.000000e+00 1.000000e+00
      outer loop
         vertex 1.999992e-01 1.999999e-01 1.020000e+01
         vertex -4.202127e-07 2.440000e+01 1.020000e+01
         vertex -4.202127e-07 2.354383e-07 1.020000e+01
      endloop
   endfacet
   facet normal 0.000000e+00 0.000000e+00 1.000000e+00
      outer loop
         vertex 3.220000e+01 1.999999e-01 1.020000e+01
         vertex 1.999992e-01 1.999999e-01 1.020000e+01
         vertex -4.202127e-07 2.354383e-07 1.020000e+01
      endloop
   endfacet
   facet normal 0.000000e+00 0.000000e+00 1.000000e+00
      outer loop
         vertex 3.240000e+01 2.354383e-07 1.020000e+01
         vertex 3.220000e+01 1.999999e-01 1.020000e+01
         vertex -4.202127e-07 2.354383e-07 1.020000e+01
      endloop
   endfacet
   facet normal 0.000000e+00 -1.000000e+00 0.000000e+00
      outer loop
         vertex -4.202127e-07 2.354383e-07 -1.840293e-07
         vertex 3.240000e+01 2.354383e-07 1.020000e+01
         vertex -4.202127e-07 2.354383e-07 1.020000e+01
      endloop
   endfacet
   facet normal 1.000000e+00 0.000000e+00 0.000000e+00
      outer loop
         vertex 3.240000e+01 2.354383e-07 -1.840293e-07
         vertex 3.240000e+01 2.440000e+01 1.020000e+01
         vertex 3.240000e+01 2.354383e-07 1.020000e+01
      endloop
   endfacet
   facet normal 0.000000e+00 0.000000e+00 1.000000e+00
      outer loop
         vertex 3.220000e+01 2.420000e+01 1.020000e+01
         vertex 3.220000e+01 1.999999e-01 1.020000e+01
         vertex 3.240000e+01 2.354383e-07 1.020000e+01
      endloop
   endfacet
   facet normal 0.000000e+00 0.000000e+00 1.000000e+00
      outer loop
         vertex 3.240000e+01 2.440000e+01 1.020000e+01
         vertex 3.220000e+01 2.420000e+01 1.020000e+01
         vertex 3.240000e+01 2.354383e-07 1.020000e+01
      endloop
   endfacet
   facet normal 0.000000e+00 -1.000000e+00 0.000000e+00
      outer loop
         vertex -4.202127e-07 2.354383e-07 -1.840293e-07
         vertex 3.240000e+01 2.354383e-07 -1.840293e-07
         vertex 3.240000e+01 2.354383e-07 1.020000e+01
      endloop
   endfacet
   facet normal -0.000000e+00 0.000000e+00 1.000000e+00
      outer loop
         vertex 1.999992e-01 2.420000e+01 1.020000e+01
         vertex -4.202127e-07 2.440000e+01 1.020000e+01
         vertex 1.999992e-01 1.999999e-01 1.020000e+01
      endloop
   endfacet
   facet normal 0.000000e+00 1.000000e+00 0.000000e+00
      outer loop
         vertex 3.220000e+01 1.999999e-01 1.020000e+01
         vertex 1.999992e-01 1.999999e-01 -1.840293e-07
         vertex 1.999992e-01 1.999999e-01 1.020000e+01
      endloop
   endfacet
   facet normal 1.000000e+00 -0.000000e+00 0.000000e+00
      outer loop
         vertex 1.999992e-01 1.999999e-01 -1.840293e-07
         vertex 1.999992e-01 2.420000e+01 -1.840293e-07
         vertex 1.999992e-01 1.999999e-01 1.020000e+01
      endloop
   endfacet
   facet normal 1.000000e+00 0.000000e+00 0.000000e+00
      outer loop
         vertex 1.999992e-01 2.420000e+01 -1.840293e-07
         vertex 1.999992e-01 2.420000e+01 1.020000e+01
         vertex 1.999992e-01 1.999999e-01 1.020000e+01
      endloop
   endfacet
   facet normal -1.000000e+00 0.000000e+00 0.000000e+00
      outer loop
         vertex 3.220000e+01 2.420000e+01 1.020000e+01
         vertex 3.220000e+01 1.999999e-01 -1.840293e-07
         vertex 3.220000e+01 1.999999e-01 1.020000e+01
      endloop
   endfacet
   facet normal 0.000000e+00 1.000000e+00 0.000000e+00
      outer loop
         vertex 3.220000e+01 1.999999e-01 -1.840293e-07
         vertex 1.999992e-01 1.999999e-01 -1.840293e-07
         vertex 3.220000e+01 1.999999e-01 1.020000e+01
      endloop
   endfacet
   facet normal 0.000000e+00 0.000000e+00 1.000000e+00
      outer loop
         vertex 3.220000e+01 2.420000e+01 1.020000e+01
         vertex 3.240000e+01 2.440000e+01 1.020000e+01
         vertex 1.999992e-01 2.420000e+01 1.020000e+01
      endloop
   endfacet
   facet normal 0.000000e+00 0.000000e+00 1.000000e+00
      outer loop
         vertex 3.240000e+01 2.440000e+01 1.020000e+01
         vertex -4.202127e-07 2.440000e+01 1.020000e+01
         vertex 1.999992e-01 2.420000e+01 1.020000e+01
      endloop
   endfacet
   facet normal 0.000000e+00 -1.000000e+00 0.000000e+00
      outer loop
         vertex 1.999992e-01 2.420000e+01 -1.840293e-07
         vertex 3.220000e+01 2.420000e+01 -1.840293e-07
         vertex 1.999992e-01 2.420000e+01 1.020000e+01
      endloop
   endfacet
   facet normal 0.000000e+00 -1.000000e+00 0.000000e+00
      outer loop
         vertex 3.220000e+01 2.420000e+01 -1.840293e-07
         vertex 3.220000e+01 2.420000e+01 1.020000e+01
         vertex 1.999992e-01 2.420000e+01 1.020000e+01
      endloop
   endfacet
   facet normal -1.000000e+00 0.000000e+00 0.000000e+00
      outer loop
         vertex 3.220000e+01 2.420000e+01 -1.840293e-07
         vertex 3.220000e+01 1.999999e-01 -1.840293e-07
         vertex 3.220000e+01 2.420000e+01 1.020000e+01
      endloop
   endfacet
   facet normal 0.000000e+00 1.000000e+00 0.000000e+00
      outer loop
         vertex 3.240000e+01 2.440000e+01 -1.840293e-07
         vertex -4.202127e-07 2.440000e+01 -1.840293e-07
         vertex -4.202127e-07 2.440000e+01 1.020000e+01
      endloop
   endfacet
   facet normal 0.000000e+00 1.000000e+00 0.000000e+00
      outer loop
         vertex 3.240000e+01 2.440000e+01 1.020000e+01
         vertex 3.240000e+01 2.440000e+01 -1.840293e-07
         vertex -4.202127e-07 2.440000e+01 1.020000e+01
      endloop
   endfacet
   facet normal 1.000000e+00 -0.000000e+00 0.000000e+00
      outer loop
         vertex 3.240000e+01 2.354383e-07 -1.840293e-07
         vertex 3.240000e+01 2.440000e+01 -1.840293e-07
         vertex 3.240000e+01 2.440000e+01 1.020000e+01
      endloop
   endfacet
   facet normal 0.000000e+00 0.000000e+00 -1.000000e+00
      outer loop
         vertex 1.999992e-01 2.420000e+01 -1.840293e-07
         vertex 1.999992e-01 1.999999e-01 -1.840293e-07
         vertex -4.202127e-07 2.354383e-07 -1.840293e-07
      endloop
   endfacet
   facet normal 0.000000e+00 0.000000e+00 -1.000000e+00
      outer loop
         vertex -4.202127e-07 2.440000e+01 -1.840293e-07
         vertex 1.999992e-01 2.420000e+01 -1.840293e-07
         vertex -4.202127e-07 2.354383e-07 -1.840293e-07
      endloop
   endfacet
   facet normal 0.000000e+00 0.000000e+00 -1.000000e+00
      outer loop
         vertex 1.999992e-01 1.999999e-01 -1.840293e-07
         vertex 3.240000e+01 2.354383e-07 -1.840293e-07
         vertex -4.202127e-07 2.354383e-07 -1.840293e-07
      endloop
   endfacet
   facet normal 0.000000e+00 0.000000e+00 -1.000000e+00
      outer loop
         vertex 3.220000e+01 1.999999e-01 -1.840293e-07
         vertex 3.240000e+01 2.440000e+01 -1.840293e-07
         vertex 3.240000e+01 2.354383e-07 -1.840293e-07
      endloop
   endfacet
   facet normal 0.000000e+00 0.000000e+00 -1.000000e+00
      outer loop
         vertex 1.999992e-01 1.999999e-01 -1.840293e-07
         vertex 3.220000e+01 1.999999e-01 -1.840293e-07
         vertex 3.240000e+01 2.354383e-07 -1.840293e-07
      endloop
   endfacet
   facet normal 0.000000e+00 0.000000e+00 -1.000000e+00
      outer loop
         vertex 3.220000e+01 2.420000e+01 -1.840293e-07
         vertex 3.240000e+01 2.440000e+01 -1.840293e-07
         vertex 3.220000e+01 1.999999e-01 -1.840293e-07
      endloop
   endfacet
   facet normal 0.000000e+00 0.000000e+00 -1.000000e+00
      outer loop
         vertex -4.202127e-07 2.440000e+01 -1.840293e-07
         vertex 3.220000e+01 2.420000e+01 -1.840293e-07
         vertex 1.999992e-01 2.420000e+01 -1.840293e-07
      endloop
   endfacet
   facet normal 0.000000e+00 0.000000e+00 -1.000000e+00
      outer loop
         vertex -4.202127e-07 2.440000e+01 -1.840293e-07
         vertex 3.240000e+01 2.440000e+01 -1.840293e-07
         vertex 3.220000e+01 2.420000e+01 -1.840293e-07
      endloop
   endfacet
endsolid