solid SimulationAssm - Detector - 2-2
   facet normal -1.000000e+00 0.000000e+00 0.000000e+00
      outer loop
         vertex -1.000001e+00 2.500000e+01 -4.000000e+00
         vertex -1.000001e+00 2.500000e+01 -4.200000e+00
         vertex -1.000001e+00 -1.000000e+00 -4.000000e+00
      endloop
   endfacet
   facet normal -1.000000e+00 0.000000e+00 -0.000000e+00
      outer loop
         vertex -1.000001e+00 2.500000e+01 -4.200000e+00
         vertex -1.000001e+00 -1.000000e+00 -4.200000e+00
         vertex -1.000001e+00 -1.000000e+00 -4.000000e+00
      endloop
   endfacet
   facet normal 0.000000e+00 0.000000e+00 1.000000e+00
      outer loop
         vertex 3.300000e+01 -1.000000e+00 -4.000000e+00
         vertex -1.000001e+00 2.500000e+01 -4.000000e+00
         vertex -1.000001e+00 -1.000000e+00 -4.000000e+00
      endloop
   endfacet
   facet normal 0.000000e+00 -1.000000e+00 0.000000e+00
      outer loop
         vertex -1.000001e+00 -1.000000e+00 -4.200000e+00
         vertex 3.300000e+01 -1.000000e+00 -4.000000e+00
         vertex -1.000001e+00 -1.000000e+00 -4.000000e+00
      endloop
   endfacet
   facet normal 1.000000e+00 0.000000e+00 0.000000e+00
      outer loop
         vertex 3.300000e+01 -1.000000e+00 -4.200000e+00
         vertex 3.300000e+01 2.500000e+01 -4.000000e+00
         vertex 3.300000e+01 -1.000000e+00 -4.000000e+00
      endloop
   endfacet
   facet normal -0.000000e+00 0.000000e+00 1.000000e+00
      outer loop
         vertex 3.300000e+01 2.500000e+01 -4.000000e+00
         vertex -1.000001e+00 2.500000e+01 -4.000000e+00
         vertex 3.300000e+01 -1.000000e+00 -4.000000e+00
      endloop
   endfacet
   facet normal 0.000000e+00 -1.000000e+00 0.000000e+00
      outer loop
         vertex -1.000001e+00 -1.000000e+00 -4.200000e+00
         vertex 3.300000e+01 -1.000000e+00 -4.200000e+00
         vertex 3.300000e+01 -1.000000e+00 -4.000000e+00
      endloop
   endfacet
   facet normal 0.000000e+00 1.000000e+00 0.000000e+00
      outer loop
         vertex 3.300000e+01 2.500000e+01 -4.200000e+00
         vertex -1.000001e+00 2.500000e+01 -4.200000e+00
         vertex -1.000001e+00 2.500000e+01 -4.000000e+00
      endloop
   endfacet
   facet normal 0.000000e+00 1.000000e+00 0.000000e+00
      outer loop
         vertex 3.300000e+01 2.500000e+01 -4.000000e+00
         vertex 3.300000e+01 2.500000e+01 -4.200000e+00
         vertex -1.000001e+00 2.500000e+01 -4.000000e+00
      endloop
   endfacet
   facet normal 1.000000e+00 -0.000000e+00 0.000000e+00
      outer loop
         vertex 3.300000e+01 -1.000000e+00 -4.200000e+00
         vertex 3.300000e+01 2.500000e+01 -4.200000e+00
         vertex 3.300000e+01 2.500000e+01 -4.000000e+00
      endloop
   endfacet
   facet normal 0.000000e+00 0.000000e+00 -1.000000e+00
      outer loop
         vertex -1.000001e+00 2.500000e+01 -4.200000e+00
         vertex 3.300000e+01 2.500000e+01 -4.200000e+00
         vertex -1.000001e+00 -1.000000e+00 -4.200000e+00
      endloop
   endfacet
   facet normal 0.000000e+00 0.000000e+00 -1.000000e+00
      outer loop
         vertex 3.300000e+01 2.500000e+01 -4.200000e+00
         vertex 3.300000e+01 -1.000000e+00 -4.200000e+00
         vertex -1.000001e+00 -1.000000e+00 -4.200000e+00
      endloop
   endfacet
endsolid