solid SimulationAssm - IndexMatchingGel - 1-2
   facet normal -1.000000e+00 0.000000e+00 0.000000e+00
      outer loop
         vertex 1.999992e-01 2.420000e+01 3.100000e+00
         vertex 1.999992e-01 2.420000e+01 3.000000e+00
         vertex 1.999992e-01 1.999999e-01 3.100000e+00
      endloop
   endfacet
   facet normal -1.000000e+00 0.000000e+00 -0.000000e+00
      outer loop
         vertex 1.999992e-01 2.420000e+01 3.000000e+00
         vertex 1.999992e-01 1.999999e-01 3.000000e+00
         vertex 1.999992e-01 1.999999e-01 3.100000e+00
      endloop
   endfacet
   facet normal 0.000000e+00 0.000000e+00 1.000000e+00
      outer loop
         vertex 3.220000e+01 1.999999e-01 3.100000e+00
         vertex 1.999992e-01 2.420000e+01 3.100000e+00
         vertex 1.999992e-01 1.999999e-01 3.100000e+00
      endloop
   endfacet
   facet normal 0.000000e+00 -1.000000e+00 0.000000e+00
      outer loop
         vertex 1.999992e-01 1.999999e-01 3.000000e+00
         vertex 3.220000e+01 1.999999e-01 3.100000e+00
         vertex 1.999992e-01 1.999999e-01 3.100000e+00
      endloop
   endfacet
   facet normal 1.000000e+00 0.000000e+00 0.000000e+00
      outer loop
         vertex 3.220000e+01 1.999999e-01 3.000000e+00
         vertex 3.220000e+01 2.420000e+01 3.100000e+00
         vertex 3.220000e+01 1.999999e-01 3.100000e+00
      endloop
   endfacet
   facet normal -0.000000e+00 0.000000e+00 1.000000e+00
      outer loop
         vertex 3.220000e+01 2.420000e+01 3.100000e+00
         vertex 1.999992e-01 2.420000e+01 3.100000e+00
         vertex 3.220000e+01 1.999999e-01 3.100000e+00
      endloop
   endfacet
   facet normal 0.000000e+00 -1.000000e+00 0.000000e+00
      outer loop
         vertex 1.999992e-01 1.999999e-01 3.000000e+00
         vertex 3.220000e+01 1.999999e-01 3.000000e+00
         vertex 3.220000e+01 1.999999e-01 3.100000e+00
      endloop
   endfacet
   facet normal 0.000000e+00 1.000000e+00 0.000000e+00
      outer loop
         vertex 3.220000e+01 2.420000e+01 3.000000e+00
         vertex 1.999992e-01 2.420000e+01 3.000000e+00
         vertex 1.999992e-01 2.420000e+01 3.100000e+00
      endloop
   endfacet
   facet normal 0.000000e+00 1.000000e+00 0.000000e+00
      outer loop
         vertex 3.220000e+01 2.420000e+01 3.100000e+00
         vertex 3.220000e+01 2.420000e+01 3.000000e+00
         vertex 1.999992e-01 2.420000e+01 3.100000e+00
      endloop
   endfacet
   facet normal 1.000000e+00 -0.000000e+00 0.000000e+00
      outer loop
         vertex 3.220000e+01 1.999999e-01 3.000000e+00
         vertex 3.220000e+01 2.420000e+01 3.000000e+00
         vertex 3.220000e+01 2.420000e+01 3.100000e+00
      endloop
   endfacet
   facet normal 0.000000e+00 0.000000e+00 -1.000000e+00
      outer loop
         vertex 1.999992e-01 2.420000e+01 3.000000e+00
         vertex 3.220000e+01 2.420000e+01 3.000000e+00
         vertex 1.999992e-01 1.999999e-01 3.000000e+00
      endloop
   endfacet
   facet normal 0.000000e+00 0.000000e+00 -1.000000e+00
      outer loop
         vertex 3.220000e+01 2.420000e+01 3.000000e+00
         vertex 3.220000e+01 1.999999e-01 3.000000e+00
         vertex 1.999992e-01 1.999999e-01 3.000000e+00
      endloop
   endfacet
endsolid