solid SimulationAssm - Part10-QP-Quadratic Pyramid-1-1
   facet normal 0.000000e+00 0.000000e+00 1.000000e+00
      outer loop
         vertex 1.999998e-01 2.000004e-01 3.000000e+00
         vertex 3.220000e+01 2.000004e-01 3.000000e+00
         vertex 1.999998e-01 2.420000e+01 3.000000e+00
      endloop
   endfacet
   facet normal 0.000000e+00 0.000000e+00 1.000000e+00
      outer loop
         vertex 3.220000e+01 2.000004e-01 3.000000e+00
         vertex 3.220000e+01 2.420000e+01 3.000000e+00
         vertex 1.999998e-01 2.420000e+01 3.000000e+00
      endloop
   endfacet
   facet normal -1.000000e+00 0.000000e+00 -0.000000e+00
      outer loop
         vertex 1.999998e-01 2.000004e-01 4.749744e-08
         vertex 1.999998e-01 2.000004e-01 3.000000e+00
         vertex 1.999998e-01 2.420000e+01 3.000000e+00
      endloop
   endfacet
   facet normal -1.000000e+00 0.000000e+00 0.000000e+00
      outer loop
         vertex 1.999998e-01 2.420000e+01 4.749745e-08
         vertex 1.999998e-01 2.000004e-01 4.749744e-08
         vertex 1.999998e-01 2.420000e+01 3.000000e+00
      endloop
   endfacet
   facet normal 0.000000e+00 1.000000e+00 2.220446e-16
      outer loop
         vertex 3.220000e+01 2.420000e+01 3.000000e+00
         vertex 1.999998e-01 2.420000e+01 4.749745e-08
         vertex 1.999998e-01 2.420000e+01 3.000000e+00
      endloop
   endfacet
   facet normal 0.000000e+00 -1.000000e+00 -2.220446e-16
      outer loop
         vertex 3.220000e+01 2.000004e-01 4.749744e-08
         vertex 3.220000e+01 2.000004e-01 3.000000e+00
         vertex 1.999998e-01 2.000004e-01 3.000000e+00
      endloop
   endfacet
   facet normal 0.000000e+00 -1.000000e+00 -2.220446e-16
      outer loop
         vertex 1.999998e-01 2.000004e-01 4.749744e-08
         vertex 3.220000e+01 2.000004e-01 4.749744e-08
         vertex 1.999998e-01 2.000004e-01 3.000000e+00
      endloop
   endfacet
   facet normal 1.000000e+00 0.000000e+00 0.000000e+00
      outer loop
         vertex 3.220000e+01 2.000004e-01 3.000000e+00
         vertex 3.220000e+01 2.420000e+01 4.749745e-08
         vertex 3.220000e+01 2.420000e+01 3.000000e+00
      endloop
   endfacet
   facet normal 0.000000e+00 1.000000e+00 2.220446e-16
      outer loop
         vertex 3.220000e+01 2.420000e+01 4.749745e-08
         vertex 1.999998e-01 2.420000e+01 4.749745e-08
         vertex 3.220000e+01 2.420000e+01 3.000000e+00
      endloop
   endfacet
   facet normal 1.000000e+00 0.000000e+00 0.000000e+00
      outer loop
         vertex 3.220000e+01 2.000004e-01 4.749744e-08
         vertex 3.220000e+01 2.420000e+01 4.749745e-08
         vertex 3.220000e+01 2.000004e-01 3.000000e+00
      endloop
   endfacet
   facet normal 0.000000e+00 0.000000e+00 -1.000000e+00
      outer loop
         vertex 2.200000e+00 2.220000e+01 4.749745e-08
         vertex 1.999998e-01 2.000004e-01 4.749744e-08
         vertex 1.999998e-01 2.420000e+01 4.749745e-08
      endloop
   endfacet
   facet normal 0.000000e+00 0.000000e+00 -1.000000e+00
      outer loop
         vertex 3.020000e+01 2.220000e+01 4.749745e-08
         vertex 2.200000e+00 2.220000e+01 4.749745e-08
         vertex 1.999998e-01 2.420000e+01 4.749745e-08
      endloop
   endfacet
   facet normal 0.000000e+00 0.000000e+00 -1.000000e+00
      outer loop
         vertex 3.220000e+01 2.420000e+01 4.749745e-08
         vertex 3.020000e+01 2.220000e+01 4.749745e-08
         vertex 1.999998e-01 2.420000e+01 4.749745e-08
      endloop
   endfacet
   facet normal 0.000000e+00 0.000000e+00 -1.000000e+00
      outer loop
         vertex 2.200000e+00 2.200001e+00 4.749744e-08
         vertex 3.220000e+01 2.000004e-01 4.749744e-08
         vertex 1.999998e-01 2.000004e-01 4.749744e-08
      endloop
   endfacet
   facet normal 0.000000e+00 0.000000e+00 -1.000000e+00
      outer loop
         vertex 2.200000e+00 2.220000e+01 4.749745e-08
         vertex 2.200000e+00 2.200001e+00 4.749744e-08
         vertex 1.999998e-01 2.000004e-01 4.749744e-08
      endloop
   endfacet
   facet normal 0.000000e+00 1.000000e+00 2.220446e-16
      outer loop
         vertex 1.820000e+01 2.220000e+01 -1.000000e+00
         vertex 1.420000e+01 2.220000e+01 -1.000000e+00
         vertex 2.200000e+00 2.220000e+01 4.749745e-08
      endloop
   endfacet
   facet normal 0.000000e+00 1.000000e+00 2.220446e-16
      outer loop
         vertex 3.020000e+01 2.220000e+01 4.749745e-08
         vertex 1.820000e+01 2.220000e+01 -1.000000e+00
         vertex 2.200000e+00 2.220000e+01 4.749745e-08
      endloop
   endfacet
   facet normal 0.000000e+00 1.000000e+00 2.220446e-16
      outer loop
         vertex 1.420000e+01 2.220000e+01 -1.000000e+00
         vertex 1.020000e+01 2.220000e+01 -1.000000e+00
         vertex 2.200000e+00 2.220000e+01 4.749745e-08
      endloop
   endfacet
   facet normal 0.000000e+00 1.000000e+00 2.220446e-16
      outer loop
         vertex 1.020000e+01 2.220000e+01 -1.000000e+00
         vertex 6.200000e+00 2.220000e+01 -1.000000e+00
         vertex 2.200000e+00 2.220000e+01 4.749745e-08
      endloop
   endfacet
   facet normal 0.000000e+00 1.000000e+00 2.220446e-16
      outer loop
         vertex 6.200000e+00 2.220000e+01 -1.000000e+00
         vertex 2.200000e+00 2.220000e+01 -1.000000e+00
         vertex 2.200000e+00 2.220000e+01 4.749745e-08
      endloop
   endfacet
   facet normal -1.000000e+00 0.000000e+00 0.000000e+00
      outer loop
         vertex 2.200000e+00 2.220000e+01 -1.000000e+00
         vertex 2.200000e+00 1.820000e+01 -1.000000e+00
         vertex 2.200000e+00 2.220000e+01 4.749745e-08
      endloop
   endfacet
   facet normal -1.000000e+00 0.000000e+00 -0.000000e+00
      outer loop
         vertex 2.200000e+00 1.820000e+01 -1.000000e+00
         vertex 2.200000e+00 1.420000e+01 -1.000000e+00
         vertex 2.200000e+00 2.220000e+01 4.749745e-08
      endloop
   endfacet
   facet normal -1.000000e+00 0.000000e+00 -0.000000e+00
      outer loop
         vertex 2.200000e+00 1.420000e+01 -1.000000e+00
         vertex 2.200000e+00 2.200001e+00 4.749744e-08
         vertex 2.200000e+00 2.220000e+01 4.749745e-08
      endloop
   endfacet
   facet normal 0.000000e+00 0.000000e+00 -1.000000e+00
      outer loop
         vertex 3.020000e+01 2.200001e+00 4.749744e-08
         vertex 3.220000e+01 2.000004e-01 4.749744e-08
         vertex 2.200000e+00 2.200001e+00 4.749744e-08
      endloop
   endfacet
   facet normal 0.000000e+00 -1.000000e+00 -2.220446e-16
      outer loop
         vertex 2.200000e+00 2.200001e+00 -1.000000e+00
         vertex 6.200000e+00 2.200001e+00 -1.000000e+00
         vertex 2.200000e+00 2.200001e+00 4.749744e-08
      endloop
   endfacet
   facet normal 0.000000e+00 -1.000000e+00 -2.220446e-16
      outer loop
         vertex 1.420000e+01 2.200001e+00 -1.000000e+00
         vertex 3.020000e+01 2.200001e+00 4.749744e-08
         vertex 2.200000e+00 2.200001e+00 4.749744e-08
      endloop
   endfacet
   facet normal 0.000000e+00 -1.000000e+00 -2.220446e-16
      outer loop
         vertex 1.020000e+01 2.200001e+00 -1.000000e+00
         vertex 1.420000e+01 2.200001e+00 -1.000000e+00
         vertex 2.200000e+00 2.200001e+00 4.749744e-08
      endloop
   endfacet
   facet normal 0.000000e+00 -1.000000e+00 -2.220446e-16
      outer loop
         vertex 6.200000e+00 2.200001e+00 -1.000000e+00
         vertex 1.020000e+01 2.200001e+00 -1.000000e+00
         vertex 2.200000e+00 2.200001e+00 4.749744e-08
      endloop
   endfacet
   facet normal -1.000000e+00 0.000000e+00 0.000000e+00
      outer loop
         vertex 2.200000e+00 6.200000e+00 -1.000000e+00
         vertex 2.200000e+00 2.200001e+00 -1.000000e+00
         vertex 2.200000e+00 2.200001e+00 4.749744e-08
      endloop
   endfacet
   facet normal -1.000000e+00 0.000000e+00 0.000000e+00
      outer loop
         vertex 2.200000e+00 1.420000e+01 -1.000000e+00
         vertex 2.200000e+00 1.020000e+01 -1.000000e+00
         vertex 2.200000e+00 2.200001e+00 4.749744e-08
      endloop
   endfacet
   facet normal -1.000000e+00 0.000000e+00 0.000000e+00
      outer loop
         vertex 2.200000e+00 1.020000e+01 -1.000000e+00
         vertex 2.200000e+00 6.200000e+00 -1.000000e+00
         vertex 2.200000e+00 2.200001e+00 4.749744e-08
      endloop
   endfacet
   facet normal 0.000000e+00 0.000000e+00 -1.000000e+00
      outer loop
         vertex 3.220000e+01 2.420000e+01 4.749745e-08
         vertex 3.020000e+01 2.200001e+00 4.749744e-08
         vertex 3.020000e+01 2.220000e+01 4.749745e-08
      endloop
   endfacet
   facet normal 1.000000e+00 0.000000e+00 0.000000e+00
      outer loop
         vertex 3.020000e+01 2.200001e+00 4.749744e-08
         vertex 3.020000e+01 1.420000e+01 -1.000000e+00
         vertex 3.020000e+01 2.220000e+01 4.749745e-08
      endloop
   endfacet
   facet normal 1.000000e+00 0.000000e+00 0.000000e+00
      outer loop
         vertex 3.020000e+01 1.420000e+01 -1.000000e+00
         vertex 3.020000e+01 1.820000e+01 -1.000000e+00
         vertex 3.020000e+01 2.220000e+01 4.749745e-08
      endloop
   endfacet
   facet normal 1.000000e+00 0.000000e+00 0.000000e+00
      outer loop
         vertex 3.020000e+01 1.820000e+01 -1.000000e+00
         vertex 3.020000e+01 2.220000e+01 -1.000000e+00
         vertex 3.020000e+01 2.220000e+01 4.749745e-08
      endloop
   endfacet
   facet normal 0.000000e+00 1.000000e+00 2.220446e-16
      outer loop
         vertex 3.020000e+01 2.220000e+01 -1.000000e+00
         vertex 2.620000e+01 2.220000e+01 -1.000000e+00
         vertex 3.020000e+01 2.220000e+01 4.749745e-08
      endloop
   endfacet
   facet normal 0.000000e+00 1.000000e+00 2.220446e-16
      outer loop
         vertex 2.220000e+01 2.220000e+01 -1.000000e+00
         vertex 1.820000e+01 2.220000e+01 -1.000000e+00
         vertex 3.020000e+01 2.220000e+01 4.749745e-08
      endloop
   endfacet
   facet normal 0.000000e+00 1.000000e+00 2.220446e-16
      outer loop
         vertex 2.620000e+01 2.220000e+01 -1.000000e+00
         vertex 2.220000e+01 2.220000e+01 -1.000000e+00
         vertex 3.020000e+01 2.220000e+01 4.749745e-08
      endloop
   endfacet
   facet normal 0.000000e+00 0.000000e+00 -1.000000e+00
      outer loop
         vertex 3.220000e+01 2.420000e+01 4.749745e-08
         vertex 3.220000e+01 2.000004e-01 4.749744e-08
         vertex 3.020000e+01 2.200001e+00 4.749744e-08
      endloop
   endfacet
   facet normal 0.000000e+00 -1.000000e+00 -2.220446e-16
      outer loop
         vertex 1.420000e+01 2.200001e+00 -1.000000e+00
         vertex 1.820000e+01 2.200001e+00 -1.000000e+00
         vertex 3.020000e+01 2.200001e+00 4.749744e-08
      endloop
   endfacet
   facet normal 0.000000e+00 -1.000000e+00 -2.220446e-16
      outer loop
         vertex 1.820000e+01 2.200001e+00 -1.000000e+00
         vertex 2.220000e+01 2.200001e+00 -1.000000e+00
         vertex 3.020000e+01 2.200001e+00 4.749744e-08
      endloop
   endfacet
   facet normal 0.000000e+00 -1.000000e+00 -2.220446e-16
      outer loop
         vertex 2.220000e+01 2.200001e+00 -1.000000e+00
         vertex 2.620000e+01 2.200001e+00 -1.000000e+00
         vertex 3.020000e+01 2.200001e+00 4.749744e-08
      endloop
   endfacet
   facet normal 0.000000e+00 -1.000000e+00 -2.220446e-16
      outer loop
         vertex 2.620000e+01 2.200001e+00 -1.000000e+00
         vertex 3.020000e+01 2.200001e+00 -1.000000e+00
         vertex 3.020000e+01 2.200001e+00 4.749744e-08
      endloop
   endfacet
   facet normal 1.000000e+00 0.000000e+00 0.000000e+00
      outer loop
         vertex 3.020000e+01 2.200001e+00 -1.000000e+00
         vertex 3.020000e+01 6.200000e+00 -1.000000e+00
         vertex 3.020000e+01 2.200001e+00 4.749744e-08
      endloop
   endfacet
   facet normal 1.000000e+00 0.000000e+00 0.000000e+00
      outer loop
         vertex 3.020000e+01 6.200000e+00 -1.000000e+00
         vertex 3.020000e+01 1.020000e+01 -1.000000e+00
         vertex 3.020000e+01 2.200001e+00 4.749744e-08
      endloop
   endfacet
   facet normal 1.000000e+00 0.000000e+00 0.000000e+00
      outer loop
         vertex 3.020000e+01 1.020000e+01 -1.000000e+00
         vertex 3.020000e+01 1.420000e+01 -1.000000e+00
         vertex 3.020000e+01 2.200001e+00 4.749744e-08
      endloop
   endfacet
   facet normal 0.000000e+00 7.071068e-01 -7.071068e-01
      outer loop
         vertex 6.200000e+00 2.220000e+01 -1.000000e+00
         vertex 4.200000e+00 2.020000e+01 -3.000000e+00
         vertex 2.200000e+00 2.220000e+01 -1.000000e+00
      endloop
   endfacet
   facet normal -7.071068e-01 0.000000e+00 -7.071068e-01
      outer loop
         vertex 4.200000e+00 2.020000e+01 -3.000000e+00
         vertex 2.200000e+00 1.820000e+01 -1.000000e+00
         vertex 2.200000e+00 2.220000e+01 -1.000000e+00
      endloop
   endfacet
   facet normal 0.000000e+00 7.071068e-01 -7.071068e-01
      outer loop
         vertex 6.200000e+00 1.820000e+01 -1.000000e+00
         vertex 4.200000e+00 1.620000e+01 -3.000000e+00
         vertex 2.200000e+00 1.820000e+01 -1.000000e+00
      endloop
   endfacet
   facet normal -7.071068e-01 0.000000e+00 -7.071068e-01
      outer loop
         vertex 4.200000e+00 1.620000e+01 -3.000000e+00
         vertex 2.200000e+00 1.420000e+01 -1.000000e+00
         vertex 2.200000e+00 1.820000e+01 -1.000000e+00
      endloop
   endfacet
   facet normal 0.000000e+00 -7.071068e-01 -7.071068e-01
      outer loop
         vertex 4.200000e+00 2.020000e+01 -3.000000e+00
         vertex 6.200000e+00 1.820000e+01 -1.000000e+00
         vertex 2.200000e+00 1.820000e+01 -1.000000e+00
      endloop
   endfacet
   facet normal 0.000000e+00 -7.071068e-01 -7.071067e-01
      outer loop
         vertex 4.200000e+00 1.620000e+01 -3.000000e+00
         vertex 6.200000e+00 1.420000e+01 -1.000000e+00
         vertex 2.200000e+00 1.420000e+01 -1.000000e+00
      endloop
   endfacet
   facet normal 0.000000e+00 7.071067e-01 -7.071068e-01
      outer loop
         vertex 6.200000e+00 1.420000e+01 -1.000000e+00
         vertex 4.200000e+00 1.220000e+01 -3.000000e+00
         vertex 2.200000e+00 1.420000e+01 -1.000000e+00
      endloop
   endfacet
   facet normal -7.071068e-01 0.000000e+00 -7.071068e-01
      outer loop
         vertex 4.200000e+00 1.220000e+01 -3.000000e+00
         vertex 2.200000e+00 1.020000e+01 -1.000000e+00
         vertex 2.200000e+00 1.420000e+01 -1.000000e+00
      endloop
   endfacet
   facet normal 0.000000e+00 7.071067e-01 -7.071068e-01
      outer loop
         vertex 6.200000e+00 1.020000e+01 -1.000000e+00
         vertex 4.200000e+00 8.200000e+00 -3.000000e+00
         vertex 2.200000e+00 1.020000e+01 -1.000000e+00
      endloop
   endfacet
   facet normal -7.071068e-01 0.000000e+00 -7.071068e-01
      outer loop
         vertex 4.200000e+00 8.200000e+00 -3.000000e+00
         vertex 2.200000e+00 6.200000e+00 -1.000000e+00
         vertex 2.200000e+00 1.020000e+01 -1.000000e+00
      endloop
   endfacet
   facet normal 0.000000e+00 -7.071069e-01 -7.071067e-01
      outer loop
         vertex 4.200000e+00 1.220000e+01 -3.000000e+00
         vertex 6.200000e+00 1.020000e+01 -1.000000e+00
         vertex 2.200000e+00 1.020000e+01 -1.000000e+00
      endloop
   endfacet
   facet normal 0.000000e+00 7.071067e-01 -7.071068e-01
      outer loop
         vertex 6.200000e+00 6.200000e+00 -1.000000e+00
         vertex 4.200000e+00 4.199999e+00 -3.000000e+00
         vertex 2.200000e+00 6.200000e+00 -1.000000e+00
      endloop
   endfacet
   facet normal -7.071068e-01 0.000000e+00 -7.071068e-01
      outer loop
         vertex 4.200000e+00 4.199999e+00 -3.000000e+00
         vertex 2.200000e+00 2.200001e+00 -1.000000e+00
         vertex 2.200000e+00 6.200000e+00 -1.000000e+00
      endloop
   endfacet
   facet normal 0.000000e+00 -7.071067e-01 -7.071068e-01
      outer loop
         vertex 4.200000e+00 8.200000e+00 -3.000000e+00
         vertex 6.200000e+00 6.200000e+00 -1.000000e+00
         vertex 2.200000e+00 6.200000e+00 -1.000000e+00
      endloop
   endfacet
   facet normal 0.000000e+00 -7.071071e-01 -7.071065e-01
      outer loop
         vertex 4.200000e+00 4.199999e+00 -3.000000e+00
         vertex 6.200000e+00 2.200001e+00 -1.000000e+00
         vertex 2.200000e+00 2.200001e+00 -1.000000e+00
      endloop
   endfacet
   facet normal 0.000000e+00 7.071068e-01 -7.071068e-01
      outer loop
         vertex 1.020000e+01 2.220000e+01 -1.000000e+00
         vertex 8.200000e+00 2.020000e+01 -3.000000e+00
         vertex 6.200000e+00 2.220000e+01 -1.000000e+00
      endloop
   endfacet
   facet normal -7.071068e-01 0.000000e+00 -7.071068e-01
      outer loop
         vertex 8.200000e+00 2.020000e+01 -3.000000e+00
         vertex 6.200000e+00 1.820000e+01 -1.000000e+00
         vertex 6.200000e+00 2.220000e+01 -1.000000e+00
      endloop
   endfacet
   facet normal 7.071068e-01 0.000000e+00 -7.071068e-01
      outer loop
         vertex 6.200000e+00 1.820000e+01 -1.000000e+00
         vertex 4.200000e+00 2.020000e+01 -3.000000e+00
         vertex 6.200000e+00 2.220000e+01 -1.000000e+00
      endloop
   endfacet
   facet normal 0.000000e+00 7.071068e-01 -7.071068e-01
      outer loop
         vertex 1.020000e+01 1.820000e+01 -1.000000e+00
         vertex 8.200000e+00 1.620000e+01 -3.000000e+00
         vertex 6.200000e+00 1.820000e+01 -1.000000e+00
      endloop
   endfacet
   facet normal -7.071068e-01 0.000000e+00 -7.071068e-01
      outer loop
         vertex 8.200000e+00 1.620000e+01 -3.000000e+00
         vertex 6.200000e+00 1.420000e+01 -1.000000e+00
         vertex 6.200000e+00 1.820000e+01 -1.000000e+00
      endloop
   endfacet
   facet normal 7.071068e-01 0.000000e+00 -7.071068e-01
      outer loop
         vertex 6.200000e+00 1.420000e+01 -1.000000e+00
         vertex 4.200000e+00 1.620000e+01 -3.000000e+00
         vertex 6.200000e+00 1.820000e+01 -1.000000e+00
      endloop
   endfacet
   facet normal 0.000000e+00 -7.071068e-01 -7.071068e-01
      outer loop
         vertex 8.200000e+00 2.020000e+01 -3.000000e+00
         vertex 1.020000e+01 1.820000e+01 -1.000000e+00
         vertex 6.200000e+00 1.820000e+01 -1.000000e+00
      endloop
   endfacet
   facet normal 0.000000e+00 -7.071068e-01 -7.071067e-01
      outer loop
         vertex 8.200000e+00 1.620000e+01 -3.000000e+00
         vertex 1.020000e+01 1.420000e+01 -1.000000e+00
         vertex 6.200000e+00 1.420000e+01 -1.000000e+00
      endloop
   endfacet
   facet normal 0.000000e+00 7.071067e-01 -7.071068e-01
      outer loop
         vertex 1.020000e+01 1.420000e+01 -1.000000e+00
         vertex 8.200000e+00 1.220000e+01 -3.000000e+00
         vertex 6.200000e+00 1.420000e+01 -1.000000e+00
      endloop
   endfacet
   facet normal -7.071068e-01 0.000000e+00 -7.071068e-01
      outer loop
         vertex 8.200000e+00 1.220000e+01 -3.000000e+00
         vertex 6.200000e+00 1.020000e+01 -1.000000e+00
         vertex 6.200000e+00 1.420000e+01 -1.000000e+00
      endloop
   endfacet
   facet normal 7.071068e-01 0.000000e+00 -7.071068e-01
      outer loop
         vertex 6.200000e+00 1.020000e+01 -1.000000e+00
         vertex 4.200000e+00 1.220000e+01 -3.000000e+00
         vertex 6.200000e+00 1.420000e+01 -1.000000e+00
      endloop
   endfacet
   facet normal 7.071068e-01 0.000000e+00 -7.071068e-01
      outer loop
         vertex 6.200000e+00 6.200000e+00 -1.000000e+00
         vertex 4.200000e+00 8.200000e+00 -3.000000e+00
         vertex 6.200000e+00 1.020000e+01 -1.000000e+00
      endloop
   endfacet
   facet normal 0.000000e+00 7.071067e-01 -7.071068e-01
      outer loop
         vertex 1.020000e+01 1.020000e+01 -1.000000e+00
         vertex 8.200000e+00 8.200000e+00 -3.000000e+00
         vertex 6.200000e+00 1.020000e+01 -1.000000e+00
      endloop
   endfacet
   facet normal -7.071068e-01 0.000000e+00 -7.071068e-01
      outer loop
         vertex 8.200000e+00 8.200000e+00 -3.000000e+00
         vertex 6.200000e+00 6.200000e+00 -1.000000e+00
         vertex 6.200000e+00 1.020000e+01 -1.000000e+00
      endloop
   endfacet
   facet normal 0.000000e+00 -7.071069e-01 -7.071067e-01
      outer loop
         vertex 8.200000e+00 1.220000e+01 -3.000000e+00
         vertex 1.020000e+01 1.020000e+01 -1.000000e+00
         vertex 6.200000e+00 1.020000e+01 -1.000000e+00
      endloop
   endfacet
   facet normal 0.000000e+00 7.071067e-01 -7.071068e-01
      outer loop
         vertex 1.020000e+01 6.200000e+00 -1.000000e+00
         vertex 8.200000e+00 4.199999e+00 -3.000000e+00
         vertex 6.200000e+00 6.200000e+00 -1.000000e+00
      endloop
   endfacet
   facet normal -7.071068e-01 0.000000e+00 -7.071068e-01
      outer loop
         vertex 8.200000e+00 4.199999e+00 -3.000000e+00
         vertex 6.200000e+00 2.200001e+00 -1.000000e+00
         vertex 6.200000e+00 6.200000e+00 -1.000000e+00
      endloop
   endfacet
   facet normal 7.071068e-01 0.000000e+00 -7.071068e-01
      outer loop
         vertex 6.200000e+00 2.200001e+00 -1.000000e+00
         vertex 4.200000e+00 4.199999e+00 -3.000000e+00
         vertex 6.200000e+00 6.200000e+00 -1.000000e+00
      endloop
   endfacet
   facet normal 0.000000e+00 -7.071067e-01 -7.071068e-01
      outer loop
         vertex 8.200000e+00 8.200000e+00 -3.000000e+00
         vertex 1.020000e+01 6.200000e+00 -1.000000e+00
         vertex 6.200000e+00 6.200000e+00 -1.000000e+00
      endloop
   endfacet
   facet normal 0.000000e+00 -7.071071e-01 -7.071065e-01
      outer loop
         vertex 8.200000e+00 4.199999e+00 -3.000000e+00
         vertex 1.020000e+01 2.200001e+00 -1.000000e+00
         vertex 6.200000e+00 2.200001e+00 -1.000000e+00
      endloop
   endfacet
   facet normal 0.000000e+00 7.071068e-01 -7.071068e-01
      outer loop
         vertex 1.420000e+01 2.220000e+01 -1.000000e+00
         vertex 1.220000e+01 2.020000e+01 -3.000000e+00
         vertex 1.020000e+01 2.220000e+01 -1.000000e+00
      endloop
   endfacet
   facet normal -7.071067e-01 0.000000e+00 -7.071068e-01
      outer loop
         vertex 1.220000e+01 2.020000e+01 -3.000000e+00
         vertex 1.020000e+01 1.820000e+01 -1.000000e+00
         vertex 1.020000e+01 2.220000e+01 -1.000000e+00
      endloop
   endfacet
   facet normal 7.071068e-01 0.000000e+00 -7.071067e-01
      outer loop
         vertex 1.020000e+01 1.820000e+01 -1.000000e+00
         vertex 8.200000e+00 2.020000e+01 -3.000000e+00
         vertex 1.020000e+01 2.220000e+01 -1.000000e+00
      endloop
   endfacet
   facet normal 0.000000e+00 7.071068e-01 -7.071068e-01
      outer loop
         vertex 1.420000e+01 1.820000e+01 -1.000000e+00
         vertex 1.220000e+01 1.620000e+01 -3.000000e+00
         vertex 1.020000e+01 1.820000e+01 -1.000000e+00
      endloop
   endfacet
   facet normal -7.071067e-01 0.000000e+00 -7.071068e-01
      outer loop
         vertex 1.220000e+01 1.620000e+01 -3.000000e+00
         vertex 1.020000e+01 1.420000e+01 -1.000000e+00
         vertex 1.020000e+01 1.820000e+01 -1.000000e+00
      endloop
   endfacet
   facet normal 7.071068e-01 0.000000e+00 -7.071067e-01
      outer loop
         vertex 1.020000e+01 1.420000e+01 -1.000000e+00
         vertex 8.200000e+00 1.620000e+01 -3.000000e+00
         vertex 1.020000e+01 1.820000e+01 -1.000000e+00
      endloop
   endfacet
   facet normal 0.000000e+00 -7.071068e-01 -7.071068e-01
      outer loop
         vertex 1.220000e+01 2.020000e+01 -3.000000e+00
         vertex 1.420000e+01 1.820000e+01 -1.000000e+00
         vertex 1.020000e+01 1.820000e+01 -1.000000e+00
      endloop
   endfacet
   facet normal 0.000000e+00 -7.071068e-01 -7.071067e-01
      outer loop
         vertex 1.220000e+01 1.620000e+01 -3.000000e+00
         vertex 1.420000e+01 1.420000e+01 -1.000000e+00
         vertex 1.020000e+01 1.420000e+01 -1.000000e+00
      endloop
   endfacet
   facet normal 0.000000e+00 7.071067e-01 -7.071068e-01
      outer loop
         vertex 1.420000e+01 1.420000e+01 -1.000000e+00
         vertex 1.220000e+01 1.220000e+01 -3.000000e+00
         vertex 1.020000e+01 1.420000e+01 -1.000000e+00
      endloop
   endfacet
   facet normal -7.071067e-01 0.000000e+00 -7.071068e-01
      outer loop
         vertex 1.220000e+01 1.220000e+01 -3.000000e+00
         vertex 1.020000e+01 1.020000e+01 -1.000000e+00
         vertex 1.020000e+01 1.420000e+01 -1.000000e+00
      endloop
   endfacet
   facet normal 7.071068e-01 0.000000e+00 -7.071067e-01
      outer loop
         vertex 1.020000e+01 1.020000e+01 -1.000000e+00
         vertex 8.200000e+00 1.220000e+01 -3.000000e+00
         vertex 1.020000e+01 1.420000e+01 -1.000000e+00
      endloop
   endfacet
   facet normal 0.000000e+00 -7.071069e-01 -7.071067e-01
      outer loop
         vertex 1.220000e+01 1.220000e+01 -3.000000e+00
         vertex 1.420000e+01 1.020000e+01 -1.000000e+00
         vertex 1.020000e+01 1.020000e+01 -1.000000e+00
      endloop
   endfacet
   facet normal 7.071068e-01 0.000000e+00 -7.071067e-01
      outer loop
         vertex 1.020000e+01 6.200000e+00 -1.000000e+00
         vertex 8.200000e+00 8.200000e+00 -3.000000e+00
         vertex 1.020000e+01 1.020000e+01 -1.000000e+00
      endloop
   endfacet
   facet normal 0.000000e+00 7.071067e-01 -7.071068e-01
      outer loop
         vertex 1.420000e+01 1.020000e+01 -1.000000e+00
         vertex 1.220000e+01 8.200000e+00 -3.000000e+00
         vertex 1.020000e+01 1.020000e+01 -1.000000e+00
      endloop
   endfacet
   facet normal -7.071067e-01 0.000000e+00 -7.071068e-01
      outer loop
         vertex 1.220000e+01 8.200000e+00 -3.000000e+00
         vertex 1.020000e+01 6.200000e+00 -1.000000e+00
         vertex 1.020000e+01 1.020000e+01 -1.000000e+00
      endloop
   endfacet
   facet normal 7.071068e-01 0.000000e+00 -7.071067e-01
      outer loop
         vertex 1.020000e+01 2.200001e+00 -1.000000e+00
         vertex 8.200000e+00 4.199999e+00 -3.000000e+00
         vertex 1.020000e+01 6.200000e+00 -1.000000e+00
      endloop
   endfacet
   facet normal 0.000000e+00 7.071067e-01 -7.071068e-01
      outer loop
         vertex 1.420000e+01 6.200000e+00 -1.000000e+00
         vertex 1.220000e+01 4.199999e+00 -3.000000e+00
         vertex 1.020000e+01 6.200000e+00 -1.000000e+00
      endloop
   endfacet
   facet normal -7.071067e-01 0.000000e+00 -7.071068e-01
      outer loop
         vertex 1.220000e+01 4.199999e+00 -3.000000e+00
         vertex 1.020000e+01 2.200001e+00 -1.000000e+00
         vertex 1.020000e+01 6.200000e+00 -1.000000e+00
      endloop
   endfacet
   facet normal 0.000000e+00 -7.071067e-01 -7.071068e-01
      outer loop
         vertex 1.220000e+01 8.200000e+00 -3.000000e+00
         vertex 1.420000e+01 6.200000e+00 -1.000000e+00
         vertex 1.020000e+01 6.200000e+00 -1.000000e+00
      endloop
   endfacet
   facet normal 0.000000e+00 -7.071071e-01 -7.071065e-01
      outer loop
         vertex 1.220000e+01 4.199999e+00 -3.000000e+00
         vertex 1.420000e+01 2.200001e+00 -1.000000e+00
         vertex 1.020000e+01 2.200001e+00 -1.000000e+00
      endloop
   endfacet
   facet normal 0.000000e+00 7.071068e-01 -7.071068e-01
      outer loop
         vertex 1.820000e+01 2.220000e+01 -1.000000e+00
         vertex 1.620000e+01 2.020000e+01 -3.000000e+00
         vertex 1.420000e+01 2.220000e+01 -1.000000e+00
      endloop
   endfacet
   facet normal -7.071067e-01 0.000000e+00 -7.071068e-01
      outer loop
         vertex 1.620000e+01 2.020000e+01 -3.000000e+00
         vertex 1.420000e+01 1.820000e+01 -1.000000e+00
         vertex 1.420000e+01 2.220000e+01 -1.000000e+00
      endloop
   endfacet
   facet normal 7.071069e-01 0.000000e+00 -7.071067e-01
      outer loop
         vertex 1.420000e+01 1.820000e+01 -1.000000e+00
         vertex 1.220000e+01 2.020000e+01 -3.000000e+00
         vertex 1.420000e+01 2.220000e+01 -1.000000e+00
      endloop
   endfacet
   facet normal 7.071069e-01 0.000000e+00 -7.071067e-01
      outer loop
         vertex 1.420000e+01 1.420000e+01 -1.000000e+00
         vertex 1.220000e+01 1.620000e+01 -3.000000e+00
         vertex 1.420000e+01 1.820000e+01 -1.000000e+00
      endloop
   endfacet
   facet normal 0.000000e+00 7.071068e-01 -7.071068e-01
      outer loop
         vertex 1.820000e+01 1.820000e+01 -1.000000e+00
         vertex 1.620000e+01 1.620000e+01 -3.000000e+00
         vertex 1.420000e+01 1.820000e+01 -1.000000e+00
      endloop
   endfacet
   facet normal -7.071067e-01 0.000000e+00 -7.071068e-01
      outer loop
         vertex 1.620000e+01 1.620000e+01 -3.000000e+00
         vertex 1.420000e+01 1.420000e+01 -1.000000e+00
         vertex 1.420000e+01 1.820000e+01 -1.000000e+00
      endloop
   endfacet
   facet normal 0.000000e+00 -7.071068e-01 -7.071068e-01
      outer loop
         vertex 1.620000e+01 2.020000e+01 -3.000000e+00
         vertex 1.820000e+01 1.820000e+01 -1.000000e+00
         vertex 1.420000e+01 1.820000e+01 -1.000000e+00
      endloop
   endfacet
   facet normal 0.000000e+00 7.071067e-01 -7.071068e-01
      outer loop
         vertex 1.820000e+01 1.420000e+01 -1.000000e+00
         vertex 1.620000e+01 1.220000e+01 -3.000000e+00
         vertex 1.420000e+01 1.420000e+01 -1.000000e+00
      endloop
   endfacet
   facet normal -7.071067e-01 0.000000e+00 -7.071068e-01
      outer loop
         vertex 1.620000e+01 1.220000e+01 -3.000000e+00
         vertex 1.420000e+01 1.020000e+01 -1.000000e+00
         vertex 1.420000e+01 1.420000e+01 -1.000000e+00
      endloop
   endfacet
   facet normal 7.071069e-01 0.000000e+00 -7.071067e-01
      outer loop
         vertex 1.420000e+01 1.020000e+01 -1.000000e+00
         vertex 1.220000e+01 1.220000e+01 -3.000000e+00
         vertex 1.420000e+01 1.420000e+01 -1.000000e+00
      endloop
   endfacet
   facet normal 0.000000e+00 -7.071068e-01 -7.071067e-01
      outer loop
         vertex 1.620000e+01 1.620000e+01 -3.000000e+00
         vertex 1.820000e+01 1.420000e+01 -1.000000e+00
         vertex 1.420000e+01 1.420000e+01 -1.000000e+00
      endloop
   endfacet
   facet normal 0.000000e+00 -7.071069e-01 -7.071067e-01
      outer loop
         vertex 1.620000e+01 1.220000e+01 -3.000000e+00
         vertex 1.820000e+01 1.020000e+01 -1.000000e+00
         vertex 1.420000e+01 1.020000e+01 -1.000000e+00
      endloop
   endfacet
   facet normal 7.071069e-01 0.000000e+00 -7.071067e-01
      outer loop
         vertex 1.420000e+01 6.200000e+00 -1.000000e+00
         vertex 1.220000e+01 8.200000e+00 -3.000000e+00
         vertex 1.420000e+01 1.020000e+01 -1.000000e+00
      endloop
   endfacet
   facet normal 0.000000e+00 7.071067e-01 -7.071068e-01
      outer loop
         vertex 1.820000e+01 1.020000e+01 -1.000000e+00
         vertex 1.620000e+01 8.200000e+00 -3.000000e+00
         vertex 1.420000e+01 1.020000e+01 -1.000000e+00
      endloop
   endfacet
   facet normal -7.071067e-01 0.000000e+00 -7.071068e-01
      outer loop
         vertex 1.620000e+01 8.200000e+00 -3.000000e+00
         vertex 1.420000e+01 6.200000e+00 -1.000000e+00
         vertex 1.420000e+01 1.020000e+01 -1.000000e+00
      endloop
   endfacet
   facet normal 0.000000e+00 7.071067e-01 -7.071068e-01
      outer loop
         vertex 1.820000e+01 6.200000e+00 -1.000000e+00
         vertex 1.620000e+01 4.199999e+00 -3.000000e+00
         vertex 1.420000e+01 6.200000e+00 -1.000000e+00
      endloop
   endfacet
   facet normal -7.071067e-01 0.000000e+00 -7.071068e-01
      outer loop
         vertex 1.620000e+01 4.199999e+00 -3.000000e+00
         vertex 1.420000e+01 2.200001e+00 -1.000000e+00
         vertex 1.420000e+01 6.200000e+00 -1.000000e+00
      endloop
   endfacet
   facet normal 7.071069e-01 0.000000e+00 -7.071067e-01
      outer loop
         vertex 1.420000e+01 2.200001e+00 -1.000000e+00
         vertex 1.220000e+01 4.199999e+00 -3.000000e+00
         vertex 1.420000e+01 6.200000e+00 -1.000000e+00
      endloop
   endfacet
   facet normal 0.000000e+00 -7.071067e-01 -7.071068e-01
      outer loop
         vertex 1.620000e+01 8.200000e+00 -3.000000e+00
         vertex 1.820000e+01 6.200000e+00 -1.000000e+00
         vertex 1.420000e+01 6.200000e+00 -1.000000e+00
      endloop
   endfacet
   facet normal 0.000000e+00 -7.071071e-01 -7.071065e-01
      outer loop
         vertex 1.620000e+01 4.199999e+00 -3.000000e+00
         vertex 1.820000e+01 2.200001e+00 -1.000000e+00
         vertex 1.420000e+01 2.200001e+00 -1.000000e+00
      endloop
   endfacet
   facet normal 0.000000e+00 7.071068e-01 -7.071068e-01
      outer loop
         vertex 2.220000e+01 2.220000e+01 -1.000000e+00
         vertex 2.020000e+01 2.020000e+01 -3.000000e+00
         vertex 1.820000e+01 2.220000e+01 -1.000000e+00
      endloop
   endfacet
   facet normal -7.071067e-01 0.000000e+00 -7.071068e-01
      outer loop
         vertex 2.020000e+01 2.020000e+01 -3.000000e+00
         vertex 1.820000e+01 1.820000e+01 -1.000000e+00
         vertex 1.820000e+01 2.220000e+01 -1.000000e+00
      endloop
   endfacet
   facet normal 7.071067e-01 0.000000e+00 -7.071068e-01
      outer loop
         vertex 1.820000e+01 1.820000e+01 -1.000000e+00
         vertex 1.620000e+01 2.020000e+01 -3.000000e+00
         vertex 1.820000e+01 2.220000e+01 -1.000000e+00
      endloop
   endfacet
   facet normal 7.071067e-01 0.000000e+00 -7.071068e-01
      outer loop
         vertex 1.820000e+01 1.420000e+01 -1.000000e+00
         vertex 1.620000e+01 1.620000e+01 -3.000000e+00
         vertex 1.820000e+01 1.820000e+01 -1.000000e+00
      endloop
   endfacet
   facet normal 0.000000e+00 7.071068e-01 -7.071068e-01
      outer loop
         vertex 2.220000e+01 1.820000e+01 -1.000000e+00
         vertex 2.020000e+01 1.620000e+01 -3.000000e+00
         vertex 1.820000e+01 1.820000e+01 -1.000000e+00
      endloop
   endfacet
   facet normal -7.071067e-01 0.000000e+00 -7.071068e-01
      outer loop
         vertex 2.020000e+01 1.620000e+01 -3.000000e+00
         vertex 1.820000e+01 1.420000e+01 -1.000000e+00
         vertex 1.820000e+01 1.820000e+01 -1.000000e+00
      endloop
   endfacet
   facet normal 0.000000e+00 -7.071068e-01 -7.071068e-01
      outer loop
         vertex 2.020000e+01 2.020000e+01 -3.000000e+00
         vertex 2.220000e+01 1.820000e+01 -1.000000e+00
         vertex 1.820000e+01 1.820000e+01 -1.000000e+00
      endloop
   endfacet
   facet normal 7.071067e-01 0.000000e+00 -7.071068e-01
      outer loop
         vertex 1.820000e+01 1.020000e+01 -1.000000e+00
         vertex 1.620000e+01 1.220000e+01 -3.000000e+00
         vertex 1.820000e+01 1.420000e+01 -1.000000e+00
      endloop
   endfacet
   facet normal 0.000000e+00 7.071067e-01 -7.071068e-01
      outer loop
         vertex 2.220000e+01 1.420000e+01 -1.000000e+00
         vertex 2.020000e+01 1.220000e+01 -3.000000e+00
         vertex 1.820000e+01 1.420000e+01 -1.000000e+00
      endloop
   endfacet
   facet normal -7.071067e-01 0.000000e+00 -7.071068e-01
      outer loop
         vertex 2.020000e+01 1.220000e+01 -3.000000e+00
         vertex 1.820000e+01 1.020000e+01 -1.000000e+00
         vertex 1.820000e+01 1.420000e+01 -1.000000e+00
      endloop
   endfacet
   facet normal 0.000000e+00 -7.071068e-01 -7.071067e-01
      outer loop
         vertex 2.020000e+01 1.620000e+01 -3.000000e+00
         vertex 2.220000e+01 1.420000e+01 -1.000000e+00
         vertex 1.820000e+01 1.420000e+01 -1.000000e+00
      endloop
   endfacet
   facet normal 0.000000e+00 7.071067e-01 -7.071068e-01
      outer loop
         vertex 2.220000e+01 1.020000e+01 -1.000000e+00
         vertex 2.020000e+01 8.200000e+00 -3.000000e+00
         vertex 1.820000e+01 1.020000e+01 -1.000000e+00
      endloop
   endfacet
   facet normal -7.071067e-01 0.000000e+00 -7.071068e-01
      outer loop
         vertex 2.020000e+01 8.200000e+00 -3.000000e+00
         vertex 1.820000e+01 6.200000e+00 -1.000000e+00
         vertex 1.820000e+01 1.020000e+01 -1.000000e+00
      endloop
   endfacet
   facet normal 7.071067e-01 0.000000e+00 -7.071068e-01
      outer loop
         vertex 1.820000e+01 6.200000e+00 -1.000000e+00
         vertex 1.620000e+01 8.200000e+00 -3.000000e+00
         vertex 1.820000e+01 1.020000e+01 -1.000000e+00
      endloop
   endfacet
   facet normal 0.000000e+00 -7.071069e-01 -7.071067e-01
      outer loop
         vertex 2.020000e+01 1.220000e+01 -3.000000e+00
         vertex 2.220000e+01 1.020000e+01 -1.000000e+00
         vertex 1.820000e+01 1.020000e+01 -1.000000e+00
      endloop
   endfacet
   facet normal 0.000000e+00 -7.071067e-01 -7.071068e-01
      outer loop
         vertex 2.020000e+01 8.200000e+00 -3.000000e+00
         vertex 2.220000e+01 6.200000e+00 -1.000000e+00
         vertex 1.820000e+01 6.200000e+00 -1.000000e+00
      endloop
   endfacet
   facet normal 0.000000e+00 7.071067e-01 -7.071068e-01
      outer loop
         vertex 2.220000e+01 6.200000e+00 -1.000000e+00
         vertex 2.020000e+01 4.199999e+00 -3.000000e+00
         vertex 1.820000e+01 6.200000e+00 -1.000000e+00
      endloop
   endfacet
   facet normal -7.071067e-01 0.000000e+00 -7.071068e-01
      outer loop
         vertex 2.020000e+01 4.199999e+00 -3.000000e+00
         vertex 1.820000e+01 2.200001e+00 -1.000000e+00
         vertex 1.820000e+01 6.200000e+00 -1.000000e+00
      endloop
   endfacet
   facet normal 7.071067e-01 0.000000e+00 -7.071068e-01
      outer loop
         vertex 1.820000e+01 2.200001e+00 -1.000000e+00
         vertex 1.620000e+01 4.199999e+00 -3.000000e+00
         vertex 1.820000e+01 6.200000e+00 -1.000000e+00
      endloop
   endfacet
   facet normal 0.000000e+00 -7.071071e-01 -7.071065e-01
      outer loop
         vertex 2.020000e+01 4.199999e+00 -3.000000e+00
         vertex 2.220000e+01 2.200001e+00 -1.000000e+00
         vertex 1.820000e+01 2.200001e+00 -1.000000e+00
      endloop
   endfacet
   facet normal 0.000000e+00 7.071068e-01 -7.071068e-01
      outer loop
         vertex 2.620000e+01 2.220000e+01 -1.000000e+00
         vertex 2.420000e+01 2.020000e+01 -3.000000e+00
         vertex 2.220000e+01 2.220000e+01 -1.000000e+00
      endloop
   endfacet
   facet normal -7.071067e-01 0.000000e+00 -7.071068e-01
      outer loop
         vertex 2.420000e+01 2.020000e+01 -3.000000e+00
         vertex 2.220000e+01 1.820000e+01 -1.000000e+00
         vertex 2.220000e+01 2.220000e+01 -1.000000e+00
      endloop
   endfacet
   facet normal 7.071071e-01 0.000000e+00 -7.071065e-01
      outer loop
         vertex 2.220000e+01 1.820000e+01 -1.000000e+00
         vertex 2.020000e+01 2.020000e+01 -3.000000e+00
         vertex 2.220000e+01 2.220000e+01 -1.000000e+00
      endloop
   endfacet
   facet normal 7.071071e-01 0.000000e+00 -7.071065e-01
      outer loop
         vertex 2.220000e+01 1.420000e+01 -1.000000e+00
         vertex 2.020000e+01 1.620000e+01 -3.000000e+00
         vertex 2.220000e+01 1.820000e+01 -1.000000e+00
      endloop
   endfacet
   facet normal 0.000000e+00 7.071068e-01 -7.071068e-01
      outer loop
         vertex 2.620000e+01 1.820000e+01 -1.000000e+00
         vertex 2.420000e+01 1.620000e+01 -3.000000e+00
         vertex 2.220000e+01 1.820000e+01 -1.000000e+00
      endloop
   endfacet
   facet normal -7.071067e-01 0.000000e+00 -7.071068e-01
      outer loop
         vertex 2.420000e+01 1.620000e+01 -3.000000e+00
         vertex 2.220000e+01 1.420000e+01 -1.000000e+00
         vertex 2.220000e+01 1.820000e+01 -1.000000e+00
      endloop
   endfacet
   facet normal 0.000000e+00 -7.071068e-01 -7.071068e-01
      outer loop
         vertex 2.420000e+01 2.020000e+01 -3.000000e+00
         vertex 2.620000e+01 1.820000e+01 -1.000000e+00
         vertex 2.220000e+01 1.820000e+01 -1.000000e+00
      endloop
   endfacet
   facet normal 0.000000e+00 7.071067e-01 -7.071068e-01
      outer loop
         vertex 2.620000e+01 1.420000e+01 -1.000000e+00
         vertex 2.420000e+01 1.220000e+01 -3.000000e+00
         vertex 2.220000e+01 1.420000e+01 -1.000000e+00
      endloop
   endfacet
   facet normal -7.071067e-01 0.000000e+00 -7.071068e-01
      outer loop
         vertex 2.420000e+01 1.220000e+01 -3.000000e+00
         vertex 2.220000e+01 1.020000e+01 -1.000000e+00
         vertex 2.220000e+01 1.420000e+01 -1.000000e+00
      endloop
   endfacet
   facet normal 7.071071e-01 0.000000e+00 -7.071065e-01
      outer loop
         vertex 2.220000e+01 1.020000e+01 -1.000000e+00
         vertex 2.020000e+01 1.220000e+01 -3.000000e+00
         vertex 2.220000e+01 1.420000e+01 -1.000000e+00
      endloop
   endfacet
   facet normal 0.000000e+00 -7.071068e-01 -7.071067e-01
      outer loop
         vertex 2.420000e+01 1.620000e+01 -3.000000e+00
         vertex 2.620000e+01 1.420000e+01 -1.000000e+00
         vertex 2.220000e+01 1.420000e+01 -1.000000e+00
      endloop
   endfacet
   facet normal 0.000000e+00 -7.071069e-01 -7.071067e-01
      outer loop
         vertex 2.420000e+01 1.220000e+01 -3.000000e+00
         vertex 2.620000e+01 1.020000e+01 -1.000000e+00
         vertex 2.220000e+01 1.020000e+01 -1.000000e+00
      endloop
   endfacet
   facet normal 0.000000e+00 7.071067e-01 -7.071068e-01
      outer loop
         vertex 2.620000e+01 1.020000e+01 -1.000000e+00
         vertex 2.420000e+01 8.200000e+00 -3.000000e+00
         vertex 2.220000e+01 1.020000e+01 -1.000000e+00
      endloop
   endfacet
   facet normal -7.071067e-01 0.000000e+00 -7.071068e-01
      outer loop
         vertex 2.420000e+01 8.200000e+00 -3.000000e+00
         vertex 2.220000e+01 6.200000e+00 -1.000000e+00
         vertex 2.220000e+01 1.020000e+01 -1.000000e+00
      endloop
   endfacet
   facet normal 7.071071e-01 0.000000e+00 -7.071065e-01
      outer loop
         vertex 2.220000e+01 6.200000e+00 -1.000000e+00
         vertex 2.020000e+01 8.200000e+00 -3.000000e+00
         vertex 2.220000e+01 1.020000e+01 -1.000000e+00
      endloop
   endfacet
   facet normal 0.000000e+00 -7.071067e-01 -7.071068e-01
      outer loop
         vertex 2.420000e+01 8.200000e+00 -3.000000e+00
         vertex 2.620000e+01 6.200000e+00 -1.000000e+00
         vertex 2.220000e+01 6.200000e+00 -1.000000e+00
      endloop
   endfacet
   facet normal 0.000000e+00 7.071067e-01 -7.071068e-01
      outer loop
         vertex 2.620000e+01 6.200000e+00 -1.000000e+00
         vertex 2.420000e+01 4.199999e+00 -3.000000e+00
         vertex 2.220000e+01 6.200000e+00 -1.000000e+00
      endloop
   endfacet
   facet normal -7.071067e-01 0.000000e+00 -7.071068e-01
      outer loop
         vertex 2.420000e+01 4.199999e+00 -3.000000e+00
         vertex 2.220000e+01 2.200001e+00 -1.000000e+00
         vertex 2.220000e+01 6.200000e+00 -1.000000e+00
      endloop
   endfacet
   facet normal 7.071071e-01 0.000000e+00 -7.071065e-01
      outer loop
         vertex 2.220000e+01 2.200001e+00 -1.000000e+00
         vertex 2.020000e+01 4.199999e+00 -3.000000e+00
         vertex 2.220000e+01 6.200000e+00 -1.000000e+00
      endloop
   endfacet
   facet normal 0.000000e+00 -7.071071e-01 -7.071065e-01
      outer loop
         vertex 2.420000e+01 4.199999e+00 -3.000000e+00
         vertex 2.620000e+01 2.200001e+00 -1.000000e+00
         vertex 2.220000e+01 2.200001e+00 -1.000000e+00
      endloop
   endfacet
   facet normal 0.000000e+00 7.071068e-01 -7.071068e-01
      outer loop
         vertex 3.020000e+01 2.220000e+01 -1.000000e+00
         vertex 2.820000e+01 2.020000e+01 -3.000000e+00
         vertex 2.620000e+01 2.220000e+01 -1.000000e+00
      endloop
   endfacet
   facet normal -7.071067e-01 0.000000e+00 -7.071068e-01
      outer loop
         vertex 2.820000e+01 2.020000e+01 -3.000000e+00
         vertex 2.620000e+01 1.820000e+01 -1.000000e+00
         vertex 2.620000e+01 2.220000e+01 -1.000000e+00
      endloop
   endfacet
   facet normal 7.071067e-01 0.000000e+00 -7.071068e-01
      outer loop
         vertex 2.620000e+01 1.820000e+01 -1.000000e+00
         vertex 2.420000e+01 2.020000e+01 -3.000000e+00
         vertex 2.620000e+01 2.220000e+01 -1.000000e+00
      endloop
   endfacet
   facet normal 0.000000e+00 7.071068e-01 -7.071068e-01
      outer loop
         vertex 3.020000e+01 1.820000e+01 -1.000000e+00
         vertex 2.820000e+01 1.620000e+01 -3.000000e+00
         vertex 2.620000e+01 1.820000e+01 -1.000000e+00
      endloop
   endfacet
   facet normal -7.071067e-01 0.000000e+00 -7.071068e-01
      outer loop
         vertex 2.820000e+01 1.620000e+01 -3.000000e+00
         vertex 2.620000e+01 1.420000e+01 -1.000000e+00
         vertex 2.620000e+01 1.820000e+01 -1.000000e+00
      endloop
   endfacet
   facet normal 0.000000e+00 -7.071068e-01 -7.071068e-01
      outer loop
         vertex 2.820000e+01 2.020000e+01 -3.000000e+00
         vertex 3.020000e+01 1.820000e+01 -1.000000e+00
         vertex 2.620000e+01 1.820000e+01 -1.000000e+00
      endloop
   endfacet
   facet normal 7.071067e-01 0.000000e+00 -7.071068e-01
      outer loop
         vertex 2.620000e+01 1.420000e+01 -1.000000e+00
         vertex 2.420000e+01 1.620000e+01 -3.000000e+00
         vertex 2.620000e+01 1.820000e+01 -1.000000e+00
      endloop
   endfacet
   facet normal 7.071067e-01 0.000000e+00 -7.071068e-01
      outer loop
         vertex 2.620000e+01 1.020000e+01 -1.000000e+00
         vertex 2.420000e+01 1.220000e+01 -3.000000e+00
         vertex 2.620000e+01 1.420000e+01 -1.000000e+00
      endloop
   endfacet
   facet normal 0.000000e+00 7.071067e-01 -7.071068e-01
      outer loop
         vertex 3.020000e+01 1.420000e+01 -1.000000e+00
         vertex 2.820000e+01 1.220000e+01 -3.000000e+00
         vertex 2.620000e+01 1.420000e+01 -1.000000e+00
      endloop
   endfacet
   facet normal -7.071067e-01 0.000000e+00 -7.071068e-01
      outer loop
         vertex 2.820000e+01 1.220000e+01 -3.000000e+00
         vertex 2.620000e+01 1.020000e+01 -1.000000e+00
         vertex 2.620000e+01 1.420000e+01 -1.000000e+00
      endloop
   endfacet
   facet normal 0.000000e+00 -7.071068e-01 -7.071067e-01
      outer loop
         vertex 2.820000e+01 1.620000e+01 -3.000000e+00
         vertex 3.020000e+01 1.420000e+01 -1.000000e+00
         vertex 2.620000e+01 1.420000e+01 -1.000000e+00
      endloop
   endfacet
   facet normal 7.071067e-01 0.000000e+00 -7.071068e-01
      outer loop
         vertex 2.620000e+01 6.200000e+00 -1.000000e+00
         vertex 2.420000e+01 8.200000e+00 -3.000000e+00
         vertex 2.620000e+01 1.020000e+01 -1.000000e+00
      endloop
   endfacet
   facet normal 0.000000e+00 7.071067e-01 -7.071068e-01
      outer loop
         vertex 3.020000e+01 1.020000e+01 -1.000000e+00
         vertex 2.820000e+01 8.200000e+00 -3.000000e+00
         vertex 2.620000e+01 1.020000e+01 -1.000000e+00
      endloop
   endfacet
   facet normal -7.071067e-01 0.000000e+00 -7.071068e-01
      outer loop
         vertex 2.820000e+01 8.200000e+00 -3.000000e+00
         vertex 2.620000e+01 6.200000e+00 -1.000000e+00
         vertex 2.620000e+01 1.020000e+01 -1.000000e+00
      endloop
   endfacet
   facet normal 0.000000e+00 -7.071069e-01 -7.071067e-01
      outer loop
         vertex 2.820000e+01 1.220000e+01 -3.000000e+00
         vertex 3.020000e+01 1.020000e+01 -1.000000e+00
         vertex 2.620000e+01 1.020000e+01 -1.000000e+00
      endloop
   endfacet
   facet normal 0.000000e+00 7.071067e-01 -7.071068e-01
      outer loop
         vertex 3.020000e+01 6.200000e+00 -1.000000e+00
         vertex 2.820000e+01 4.199999e+00 -3.000000e+00
         vertex 2.620000e+01 6.200000e+00 -1.000000e+00
      endloop
   endfacet
   facet normal -7.071067e-01 0.000000e+00 -7.071068e-01
      outer loop
         vertex 2.820000e+01 4.199999e+00 -3.000000e+00
         vertex 2.620000e+01 2.200001e+00 -1.000000e+00
         vertex 2.620000e+01 6.200000e+00 -1.000000e+00
      endloop
   endfacet
   facet normal 0.000000e+00 -7.071067e-01 -7.071068e-01
      outer loop
         vertex 2.820000e+01 8.200000e+00 -3.000000e+00
         vertex 3.020000e+01 6.200000e+00 -1.000000e+00
         vertex 2.620000e+01 6.200000e+00 -1.000000e+00
      endloop
   endfacet
   facet normal 7.071067e-01 0.000000e+00 -7.071068e-01
      outer loop
         vertex 2.620000e+01 2.200001e+00 -1.000000e+00
         vertex 2.420000e+01 4.199999e+00 -3.000000e+00
         vertex 2.620000e+01 6.200000e+00 -1.000000e+00
      endloop
   endfacet
   facet normal 0.000000e+00 -7.071071e-01 -7.071065e-01
      outer loop
         vertex 2.820000e+01 4.199999e+00 -3.000000e+00
         vertex 3.020000e+01 2.200001e+00 -1.000000e+00
         vertex 2.620000e+01 2.200001e+00 -1.000000e+00
      endloop
   endfacet
   facet normal 7.071067e-01 0.000000e+00 -7.071068e-01
      outer loop
         vertex 3.020000e+01 1.820000e+01 -1.000000e+00
         vertex 2.820000e+01 2.020000e+01 -3.000000e+00
         vertex 3.020000e+01 2.220000e+01 -1.000000e+00
      endloop
   endfacet
   facet normal 7.071067e-01 0.000000e+00 -7.071068e-01
      outer loop
         vertex 3.020000e+01 1.420000e+01 -1.000000e+00
         vertex 2.820000e+01 1.620000e+01 -3.000000e+00
         vertex 3.020000e+01 1.820000e+01 -1.000000e+00
      endloop
   endfacet
   facet normal 7.071067e-01 0.000000e+00 -7.071068e-01
      outer loop
         vertex 3.020000e+01 1.020000e+01 -1.000000e+00
         vertex 2.820000e+01 1.220000e+01 -3.000000e+00
         vertex 3.020000e+01 1.420000e+01 -1.000000e+00
      endloop
   endfacet
   facet normal 7.071067e-01 0.000000e+00 -7.071068e-01
      outer loop
         vertex 3.020000e+01 6.200000e+00 -1.000000e+00
         vertex 2.820000e+01 8.200000e+00 -3.000000e+00
         vertex 3.020000e+01 1.020000e+01 -1.000000e+00
      endloop
   endfacet
   facet normal 7.071067e-01 0.000000e+00 -7.071068e-01
      outer loop
         vertex 3.020000e+01 2.200001e+00 -1.000000e+00
         vertex 2.820000e+01 4.199999e+00 -3.000000e+00
         vertex 3.020000e+01 6.200000e+00 -1.000000e+00
      endloop
   endfacet
endsolid