solid SimulationAssm - Flatabs101 - 1-1
   facet normal -1.000000e+00 0.000000e+00 0.000000e+00
      outer loop
         vertex 1.999992e-01 1.999999e-01 7.200000e+00
         vertex 1.999992e-01 2.420000e+01 1.020000e+01
         vertex 1.999992e-01 2.420000e+01 7.200000e+00
      endloop
   endfacet
   facet normal 0.000000e+00 1.000000e+00 0.000000e+00
      outer loop
         vertex 1.999992e-01 2.420000e+01 1.020000e+01
         vertex 3.220000e+01 2.420000e+01 7.200000e+00
         vertex 1.999992e-01 2.420000e+01 7.200000e+00
      endloop
   endfacet
   facet normal 0.000000e+00 0.000000e+00 -1.000000e+00
      outer loop
         vertex 3.220000e+01 2.420000e+01 7.200000e+00
         vertex 1.999992e-01 1.999999e-01 7.200000e+00
         vertex 1.999992e-01 2.420000e+01 7.200000e+00
      endloop
   endfacet
   facet normal 1.000000e+00 0.000000e+00 0.000000e+00
      outer loop
         vertex 3.220000e+01 1.999999e-01 1.020000e+01
         vertex 3.220000e+01 1.999999e-01 7.200000e+00
         vertex 3.220000e+01 2.420000e+01 7.200000e+00
      endloop
   endfacet
   facet normal 1.000000e+00 0.000000e+00 0.000000e+00
      outer loop
         vertex 3.220000e+01 2.420000e+01 1.020000e+01
         vertex 3.220000e+01 1.999999e-01 1.020000e+01
         vertex 3.220000e+01 2.420000e+01 7.200000e+00
      endloop
   endfacet
   facet normal 0.000000e+00 1.000000e+00 0.000000e+00
      outer loop
         vertex 1.999992e-01 2.420000e+01 1.020000e+01
         vertex 3.220000e+01 2.420000e+01 1.020000e+01
         vertex 3.220000e+01 2.420000e+01 7.200000e+00
      endloop
   endfacet
   facet normal 0.000000e+00 0.000000e+00 -1.000000e+00
      outer loop
         vertex 3.220000e+01 1.999999e-01 7.200000e+00
         vertex 1.999992e-01 1.999999e-01 7.200000e+00
         vertex 3.220000e+01 2.420000e+01 7.200000e+00
      endloop
   endfacet
   facet normal -1.000000e+00 0.000000e+00 0.000000e+00
      outer loop
         vertex 1.999992e-01 1.999999e-01 1.020000e+01
         vertex 1.999992e-01 2.420000e+01 1.020000e+01
         vertex 1.999992e-01 1.999999e-01 7.200000e+00
      endloop
   endfacet
   facet normal 0.000000e+00 -1.000000e+00 0.000000e+00
      outer loop
         vertex 3.220000e+01 1.999999e-01 7.200000e+00
         vertex 1.999992e-01 1.999999e-01 1.020000e+01
         vertex 1.999992e-01 1.999999e-01 7.200000e+00
      endloop
   endfacet
   facet normal 0.000000e+00 -1.000000e+00 0.000000e+00
      outer loop
         vertex 3.220000e+01 1.999999e-01 1.020000e+01
         vertex 1.999992e-01 1.999999e-01 1.020000e+01
         vertex 3.220000e+01 1.999999e-01 7.200000e+00
      endloop
   endfacet
   facet normal 0.000000e+00 0.000000e+00 1.000000e+00
      outer loop
         vertex 2.200000e+00 2.200000e+00 1.020000e+01
         vertex 2.200000e+00 2.220000e+01 1.020000e+01
         vertex 1.999992e-01 2.420000e+01 1.020000e+01
      endloop
   endfacet
   facet normal 0.000000e+00 0.000000e+00 1.000000e+00
      outer loop
         vertex 1.999992e-01 1.999999e-01 1.020000e+01
         vertex 2.200000e+00 2.200000e+00 1.020000e+01
         vertex 1.999992e-01 2.420000e+01 1.020000e+01
      endloop
   endfacet
   facet normal 0.000000e+00 0.000000e+00 1.000000e+00
      outer loop
         vertex 2.200000e+00 2.220000e+01 1.020000e+01
         vertex 3.220000e+01 2.420000e+01 1.020000e+01
         vertex 1.999992e-01 2.420000e+01 1.020000e+01
      endloop
   endfacet
   facet normal 0.000000e+00 0.000000e+00 1.000000e+00
      outer loop
         vertex 3.020000e+01 2.220000e+01 1.020000e+01
         vertex 3.220000e+01 1.999999e-01 1.020000e+01
         vertex 3.220000e+01 2.420000e+01 1.020000e+01
      endloop
   endfacet
   facet normal 0.000000e+00 0.000000e+00 1.000000e+00
      outer loop
         vertex 2.200000e+00 2.220000e+01 1.020000e+01
         vertex 3.020000e+01 2.220000e+01 1.020000e+01
         vertex 3.220000e+01 2.420000e+01 1.020000e+01
      endloop
   endfacet
   facet normal -1.000000e+00 0.000000e+00 0.000000e+00
      outer loop
         vertex 2.200000e+00 2.200000e+00 1.020000e+01
         vertex 2.200000e+00 2.220000e+01 1.120000e+01
         vertex 2.200000e+00 2.220000e+01 1.020000e+01
      endloop
   endfacet
   facet normal 0.000000e+00 1.000000e+00 0.000000e+00
      outer loop
         vertex 3.020000e+01 2.220000e+01 1.120000e+01
         vertex 3.020000e+01 2.220000e+01 1.020000e+01
         vertex 2.200000e+00 2.220000e+01 1.020000e+01
      endloop
   endfacet
   facet normal 0.000000e+00 1.000000e+00 0.000000e+00
      outer loop
         vertex 2.200000e+00 2.220000e+01 1.120000e+01
         vertex 3.020000e+01 2.220000e+01 1.120000e+01
         vertex 2.200000e+00 2.220000e+01 1.020000e+01
      endloop
   endfacet
   facet normal 0.000000e+00 0.000000e+00 1.000000e+00
      outer loop
         vertex 3.020000e+01 2.200000e+00 1.020000e+01
         vertex 3.220000e+01 1.999999e-01 1.020000e+01
         vertex 3.020000e+01 2.220000e+01 1.020000e+01
      endloop
   endfacet
   facet normal 1.000000e+00 0.000000e+00 0.000000e+00
      outer loop
         vertex 3.020000e+01 2.200000e+00 1.120000e+01
         vertex 3.020000e+01 2.200000e+00 1.020000e+01
         vertex 3.020000e+01 2.220000e+01 1.020000e+01
      endloop
   endfacet
   facet normal 1.000000e+00 0.000000e+00 0.000000e+00
      outer loop
         vertex 3.020000e+01 2.220000e+01 1.120000e+01
         vertex 3.020000e+01 2.200000e+00 1.120000e+01
         vertex 3.020000e+01 2.220000e+01 1.020000e+01
      endloop
   endfacet
   facet normal 0.000000e+00 0.000000e+00 1.000000e+00
      outer loop
         vertex 1.999992e-01 1.999999e-01 1.020000e+01
         vertex 3.020000e+01 2.200000e+00 1.020000e+01
         vertex 2.200000e+00 2.200000e+00 1.020000e+01
      endloop
   endfacet
   facet normal -1.000000e+00 0.000000e+00 0.000000e+00
      outer loop
         vertex 2.200000e+00 2.200000e+00 1.120000e+01
         vertex 2.200000e+00 2.220000e+01 1.120000e+01
         vertex 2.200000e+00 2.200000e+00 1.020000e+01
      endloop
   endfacet
   facet normal 0.000000e+00 -1.000000e+00 0.000000e+00
      outer loop
         vertex 3.020000e+01 2.200000e+00 1.020000e+01
         vertex 2.200000e+00 2.200000e+00 1.120000e+01
         vertex 2.200000e+00 2.200000e+00 1.020000e+01
      endloop
   endfacet
   facet normal 0.000000e+00 0.000000e+00 1.000000e+00
      outer loop
         vertex 1.999992e-01 1.999999e-01 1.020000e+01
         vertex 3.220000e+01 1.999999e-01 1.020000e+01
         vertex 3.020000e+01 2.200000e+00 1.020000e+01
      endloop
   endfacet
   facet normal 0.000000e+00 -1.000000e+00 0.000000e+00
      outer loop
         vertex 3.020000e+01 2.200000e+00 1.120000e+01
         vertex 2.200000e+00 2.200000e+00 1.120000e+01
         vertex 3.020000e+01 2.200000e+00 1.020000e+01
      endloop
   endfacet
   facet normal 0.000000e+00 0.000000e+00 1.000000e+00
      outer loop
         vertex 2.200000e+00 2.200000e+00 1.120000e+01
         vertex 3.020000e+01 2.220000e+01 1.120000e+01
         vertex 2.200000e+00 2.220000e+01 1.120000e+01
      endloop
   endfacet
   facet normal 0.000000e+00 0.000000e+00 1.000000e+00
      outer loop
         vertex 2.200000e+00 2.200000e+00 1.120000e+01
         vertex 3.020000e+01 2.200000e+00 1.120000e+01
         vertex 3.020000e+01 2.220000e+01 1.120000e+01
      endloop
   endfacet
endsolid